<svg width="63" height="62" viewBox="0 0 63 62" fill="none" xmlns="http://www.w3.org/2000/svg">
<mask id="mask0_2081_1450" style="mask-type:alpha" maskUnits="userSpaceOnUse" x="0" y="0" width="63" height="62">
<rect x="29.7993" y="0.00012207" width="45.7715" height="41.8257" transform="rotate(45 29.7993 0.00012207)" fill="#C4C4C4"/>
</mask>
<g mask="url(#mask0_2081_1450)">
<path d="M40.9599 21.47L5.24643 21.47M40.9595 27.0504L-0.334207 27.0504M39.8436 32.6308L-5.91431 32.6308M38.7278 38.2107L-11.4943 38.2107" stroke="#FF9F37" stroke-width="2.5"/>
<path d="M45.9818 39.6197C41.0508 44.5507 33.0561 44.5507 28.1251 39.6197C23.1941 34.6887 23.1941 26.694 28.1251 21.763C33.0561 16.832 41.0508 16.832 45.9818 21.763C50.9128 26.694 50.9128 34.6887 45.9818 39.6197Z" fill="white"/>
</g>
<path d="M42.8659 37.6197C39.0395 41.4462 32.8355 41.4462 29.0091 37.6197C25.1826 33.7933 25.1826 27.5893 29.0091 23.7629C32.8355 19.9364 39.0395 19.9364 42.8659 23.7629C46.6924 27.5893 46.6924 33.7933 42.8659 37.6197Z" stroke="#676E8A" stroke-width="2.5"/>
</svg>
