<svg width="207" height="135" viewBox="0 0 207 135" fill="none" xmlns="http://www.w3.org/2000/svg">
<path d="M103.656 13.9169H161.425V37.8038H103.656V13.9169Z" fill="#FFBC0E"/>
<path d="M103.647 38.5844H161.424C161.655 38.5844 161.877 38.4997 162.04 38.349C162.204 38.1982 162.295 37.9937 162.295 37.7804V13.9176C162.295 13.7044 162.204 13.4999 162.04 13.3491C161.877 13.1984 161.655 13.1136 161.424 13.1136H103.647C103.416 13.1136 103.194 13.1984 103.031 13.3491C102.867 13.4999 102.776 13.7044 102.776 13.9176V37.7804C102.776 37.9937 102.867 38.1982 103.031 38.349C103.194 38.4997 103.416 38.5844 103.647 38.5844ZM160.553 36.9764H104.518V14.7217H160.553V36.9764Z" fill="#093F68"/>
<path d="M5.4002 111.869H200.066V82.1209C200.064 79.173 199.678 76.236 198.916 73.3733C198.441 71.6568 197.838 69.9725 197.113 68.3322L187.697 47.0825L186.233 43.786C185.452 42.0158 184.118 40.4999 182.401 39.4306C180.684 38.3613 178.662 37.7869 176.591 37.7802H87.9075C86.5169 37.7801 85.1405 38.0377 83.8597 38.5376C82.5789 39.0376 81.4198 39.7697 80.4512 40.6906L73.7353 47.0503L50.7827 68.8066C48.7784 70.7034 46.3835 72.2111 43.7388 73.2411C41.094 74.2711 38.2528 74.8027 35.3823 74.8045H17.961C15.6947 74.8083 13.5098 75.5842 11.8251 76.9833C10.1405 78.3825 9.07471 80.3064 8.8322 82.3862L7.68239 91.8654L5.4002 111.869Z" fill="#373737"/>
<path d="M5.39926 112.672H200.065C200.296 112.672 200.518 112.587 200.681 112.437C200.844 112.286 200.936 112.081 200.936 111.868V82.12C200.932 79.1072 200.537 76.1057 199.76 73.1795C199.279 71.4135 198.665 69.6807 197.922 67.9937L187.034 43.4395C186.183 41.529 184.733 39.8964 182.871 38.7506C181.009 37.6048 178.819 36.9978 176.581 37.0074H87.9066C86.3998 37.0099 84.9087 37.29 83.5206 37.8312C82.1326 38.3724 80.8755 39.1638 79.8231 40.1591L50.1546 68.2992C48.2285 70.1236 45.9257 71.5731 43.3822 72.5619C40.8388 73.5506 38.1063 74.0586 35.3465 74.0559H17.9252C16.0227 74.0589 14.1601 74.5599 12.5536 75.5005C10.947 76.4412 9.66238 77.783 8.84867 79.3703C8.35591 80.3071 8.04629 81.3169 7.93406 82.3532L4.53691 111.747C4.52319 111.86 4.5355 111.974 4.57304 112.083C4.61057 112.191 4.67248 112.29 4.75468 112.375C4.8329 112.464 4.93088 112.536 5.04206 112.588C5.15324 112.639 5.27504 112.668 5.39926 112.672ZM199.194 111.064H6.36613L9.66747 82.4898C9.76511 81.6357 10.0215 80.8034 10.4253 80.0296C11.0987 78.7165 12.1614 77.6064 13.4903 76.8281C14.8193 76.0497 16.36 75.6349 17.9339 75.6317H35.3552C38.3427 75.6319 41.3 75.08 44.0527 74.0084C46.8053 72.9369 49.2977 71.3674 51.3828 69.3926L81.0426 41.2526C81.9357 40.4072 83.0032 39.7356 84.1821 39.2771C85.361 38.8187 86.6273 38.5828 87.9066 38.5833H176.59C178.481 38.5885 180.328 39.1146 181.894 40.0943C183.46 41.074 184.673 42.4627 185.379 44.0827L196.302 68.6288C197.007 70.2483 197.59 71.9113 198.044 73.6056C198.787 76.4029 199.164 79.2721 199.168 82.1522L199.194 111.064Z" fill="#093F68"/>
<path d="M202.8 106.514H188.436V114.964H202.8C203.238 114.964 203.672 114.884 204.077 114.73C204.482 114.575 204.849 114.348 205.159 114.062C205.469 113.776 205.715 113.437 205.882 113.063C206.05 112.689 206.136 112.289 206.136 111.885V109.593C206.136 108.777 205.785 107.993 205.159 107.416C204.533 106.838 203.685 106.514 202.8 106.514Z" fill="#373737"/>
<path d="M188.471 115.769H202.8C203.915 115.767 204.983 115.357 205.77 114.629C206.557 113.9 206.999 112.914 206.999 111.885V109.594C206.999 108.565 206.557 107.579 205.77 106.851C204.983 106.123 203.915 105.713 202.8 105.711H188.437C188.206 105.711 187.984 105.795 187.821 105.946C187.657 106.097 187.566 106.301 187.566 106.515V114.965C187.565 115.073 187.589 115.18 187.635 115.28C187.681 115.38 187.748 115.47 187.833 115.545C187.917 115.62 188.018 115.679 188.127 115.717C188.237 115.755 188.354 115.773 188.471 115.769ZM202.8 107.319C203.453 107.321 204.078 107.561 204.538 107.988C204.998 108.414 205.257 108.992 205.257 109.594V111.885C205.257 112.487 204.998 113.065 204.538 113.491C204.078 113.918 203.453 114.159 202.8 114.161H189.308V107.319H202.8Z" fill="#093F68"/>
<path d="M18.5266 106.514H4.19758C3.31277 106.514 2.46419 106.838 1.83854 107.416C1.21288 107.993 0.861407 108.777 0.861407 109.593V111.885C0.861407 112.701 1.21288 113.485 1.83854 114.062C2.46419 114.64 3.31277 114.964 4.19758 114.964H18.5266V106.514Z" fill="#373737"/>
<path d="M4.19834 115.769H18.5274C18.7584 115.769 18.9799 115.684 19.1433 115.533C19.3067 115.382 19.3984 115.178 19.3984 114.965V106.515C19.3984 106.301 19.3067 106.097 19.1433 105.946C18.9799 105.795 18.7584 105.711 18.5274 105.711H4.19834C3.08402 105.713 2.01611 106.123 1.22898 106.851C0.441855 107.579 -0.000207874 108.565 -0.000205485 109.594V111.885C-0.000207874 112.914 0.441855 113.9 1.22898 114.629C2.01611 115.357 3.08402 115.767 4.19834 115.769ZM17.6911 114.161H4.19834C3.54606 114.159 2.92127 113.918 2.46086 113.491C2.00044 113.065 1.74192 112.487 1.74193 111.885V109.594C1.74192 108.992 2.00044 108.414 2.46086 107.988C2.92127 107.561 3.54606 107.321 4.19834 107.319H17.6563L17.6911 114.161Z" fill="#093F68"/>
<path d="M37.1759 134.204C24.9277 134.204 14.9986 125.04 14.9986 113.734C14.9986 102.429 24.9277 93.2644 37.1759 93.2644C49.4241 93.2644 59.3533 102.429 59.3533 113.734C59.3533 125.04 49.4241 134.204 37.1759 134.204Z" fill="#093F68"/>
<path d="M37.1767 135C41.7356 135 46.1921 133.752 49.9826 131.414C53.7731 129.076 56.7272 125.753 58.4715 121.865C60.2157 117.977 60.6716 113.7 59.7816 109.573C58.8915 105.446 56.6955 101.655 53.4713 98.6802C50.247 95.7053 46.1394 93.6798 41.6679 92.8598C37.1963 92.0399 32.5618 92.4623 28.3504 94.0737C24.139 95.6851 20.54 98.4131 18.0084 101.913C15.4769 105.412 14.1266 109.526 14.1283 113.734C14.1375 119.373 16.5691 124.778 20.8897 128.765C25.2104 132.751 31.0675 134.993 37.1767 135ZM37.1767 94.0681C41.3907 94.0681 45.51 95.2215 49.0138 97.3824C52.5176 99.5433 55.2485 102.615 56.8611 106.208C58.4737 109.802 58.8957 113.756 58.0736 117.571C57.2515 121.385 55.2222 124.89 52.2425 127.64C49.2628 130.39 45.4663 132.263 41.3333 133.022C37.2003 133.781 32.9164 133.391 29.0231 131.903C25.1299 130.414 21.8023 127.894 19.4612 124.66C17.12 121.426 15.8704 117.624 15.8704 113.734C15.8727 108.518 18.118 103.516 22.1129 99.8276C26.1079 96.1387 31.5258 94.0643 37.1767 94.06V94.0681Z" fill="#093F68"/>
<path d="M37.1756 123.655C31.2391 123.655 26.4266 119.213 26.4266 113.734C26.4266 108.254 31.2391 103.812 37.1756 103.812C43.1121 103.812 47.9246 108.254 47.9246 113.734C47.9246 119.213 43.1121 123.655 37.1756 123.655Z" fill="white"/>
<path d="M37.1761 124.46C39.4743 124.46 41.721 123.831 43.6319 122.652C45.5428 121.474 47.0321 119.799 47.9116 117.839C48.7911 115.879 49.0212 113.723 48.5729 111.642C48.1245 109.562 47.0178 107.651 45.3927 106.151C43.7676 104.651 41.6971 103.629 39.4431 103.215C37.189 102.801 34.8526 103.014 32.7294 103.826C30.6061 104.637 28.7913 106.012 27.5144 107.776C26.2376 109.54 25.5561 111.613 25.5561 113.735C25.5607 116.578 26.7865 119.303 28.9646 121.314C31.1428 123.324 34.0957 124.456 37.1761 124.46ZM37.1761 104.617C39.1298 104.617 41.0396 105.152 42.664 106.154C44.2884 107.156 45.5545 108.579 46.3021 110.245C47.0497 111.911 47.2454 113.745 46.8642 115.513C46.4831 117.282 45.5423 118.906 44.1609 120.182C42.7794 121.457 41.0193 122.325 39.1032 122.677C37.1871 123.029 35.201 122.848 33.396 122.158C31.5911 121.468 30.0484 120.299 28.963 118.8C27.8776 117.301 27.2982 115.538 27.2982 113.735C27.3006 111.317 28.342 108.999 30.194 107.29C32.0459 105.581 34.5571 104.619 37.1761 104.617Z" fill="#093F68"/>
<path d="M172.173 134.204C159.925 134.204 149.996 125.04 149.996 113.734C149.996 102.429 159.925 93.2644 172.173 93.2644C184.421 93.2644 194.351 102.429 194.351 113.734C194.351 125.04 184.421 134.204 172.173 134.204Z" fill="#093F68"/>
<path d="M172.174 135C176.733 135 181.189 133.752 184.98 131.414C188.77 129.076 191.725 125.753 193.469 121.865C195.213 117.977 195.669 113.7 194.779 109.573C193.889 105.446 191.693 101.655 188.469 98.6802C185.244 95.7053 181.137 93.6798 176.665 92.8598C172.194 92.0399 167.559 92.4623 163.348 94.0737C159.136 95.6851 155.537 98.4131 153.006 101.913C150.474 105.412 149.124 109.526 149.126 113.734C149.133 119.373 151.563 124.78 155.884 128.767C160.206 132.754 166.064 134.996 172.174 135ZM172.174 94.0681C176.388 94.0681 180.507 95.2215 184.011 97.3824C187.515 99.5433 190.246 102.615 191.858 106.208C193.471 109.802 193.893 113.756 193.071 117.571C192.249 121.385 190.22 124.89 187.24 127.64C184.26 130.39 180.464 132.263 176.331 133.022C172.198 133.781 167.914 133.391 164.02 131.903C160.127 130.414 156.8 127.894 154.459 124.66C152.117 121.426 150.868 117.624 150.868 113.734C150.87 108.518 153.115 103.516 157.11 99.8276C161.105 96.1387 166.523 94.0643 172.174 94.06V94.0681Z" fill="#093F68"/>
<path d="M172.174 123.655C166.238 123.655 161.425 119.213 161.425 113.734C161.425 108.254 166.238 103.812 172.174 103.812C178.111 103.812 182.923 108.254 182.923 113.734C182.923 119.213 178.111 123.655 172.174 123.655Z" fill="white"/>
<path d="M172.174 124.46C174.472 124.46 176.719 123.831 178.629 122.652C180.54 121.474 182.03 119.799 182.909 117.839C183.789 115.879 184.019 113.723 183.57 111.642C183.122 109.562 182.015 107.651 180.39 106.151C178.765 104.651 176.695 103.629 174.441 103.215C172.187 102.801 169.85 103.014 167.727 103.826C165.604 104.637 163.789 106.012 162.512 107.776C161.235 109.54 160.554 111.613 160.554 113.735C160.558 116.578 161.784 119.303 163.962 121.314C166.14 123.324 169.093 124.456 172.174 124.46ZM172.174 104.617C174.127 104.617 176.037 105.152 177.662 106.154C179.286 107.156 180.552 108.579 181.3 110.245C182.047 111.911 182.243 113.745 181.862 115.513C181.481 117.282 180.54 118.906 179.158 120.182C177.777 121.457 176.017 122.325 174.101 122.677C172.185 123.029 170.199 122.848 168.394 122.158C166.589 121.468 165.046 120.299 163.961 118.8C162.875 117.301 162.296 115.538 162.296 113.735C162.298 111.317 163.34 108.999 165.192 107.29C167.043 105.581 169.555 104.619 172.174 104.617Z" fill="#093F68"/>
<path d="M134.161 47.0743V73.4054H198.925C198.447 71.6782 197.841 69.9832 197.113 68.3322L187.697 47.0824L134.161 47.0743Z" fill="white"/>
<path d="M134.161 74.2101H198.916C199.051 74.2141 199.185 74.1889 199.308 74.1366C199.431 74.0843 199.539 74.0063 199.624 73.9087C199.708 73.8112 199.767 73.6968 199.795 73.5747C199.823 73.4525 199.821 73.326 199.787 73.2051C199.303 71.4398 198.689 69.7071 197.949 68.0193L188.533 46.7695C188.467 46.6214 188.354 46.4948 188.21 46.406C188.066 46.3172 187.896 46.2702 187.722 46.271H134.161C133.93 46.271 133.708 46.3557 133.545 46.5065C133.381 46.6573 133.29 46.8618 133.29 47.075V73.4061C133.29 73.6193 133.381 73.8238 133.545 73.9746C133.708 74.1254 133.93 74.2101 134.161 74.2101ZM197.748 72.6021H135.032V47.879H187.121L196.311 68.6303C196.881 69.9281 197.372 71.2541 197.783 72.6021H197.748Z" fill="#093F68"/>
<path d="M43.3949 73.4054H123.533V47.0743H73.7864L50.8338 68.8306C48.7343 70.8258 46.1984 72.3853 43.3949 73.4054Z" fill="white"/>
<path d="M43.3957 74.2101H123.534C123.765 74.2101 123.986 74.1254 124.15 73.9746C124.313 73.8238 124.405 73.6193 124.405 73.4061V47.075C124.405 46.8618 124.313 46.6573 124.15 46.5065C123.986 46.3557 123.765 46.271 123.534 46.271H73.7872C73.6719 46.2714 73.5579 46.293 73.4518 46.3344C73.3456 46.3758 73.2494 46.4362 73.1687 46.5122L50.2161 68.2685C48.207 70.1761 45.7851 71.6718 43.1083 72.6584C42.9195 72.7272 42.7628 72.8547 42.665 73.0188C42.5673 73.183 42.5347 73.3735 42.5729 73.5575C42.6111 73.7414 42.7177 73.9073 42.8743 74.0264C43.0309 74.1456 43.2276 74.2105 43.4305 74.2101H43.3957ZM122.663 72.6021H47.0542C48.6468 71.7034 50.1101 70.6229 51.4095 69.3861L74.1008 47.879H122.61L122.663 72.6021Z" fill="#093F68"/>
<path d="M65.5124 107.319H141.826C142.057 107.319 142.279 107.234 142.442 107.083C142.606 106.932 142.698 106.728 142.698 106.515C142.698 106.301 142.606 106.097 142.442 105.946C142.279 105.795 142.057 105.711 141.826 105.711H65.5472C65.3162 105.711 65.0947 105.795 64.9313 105.946C64.768 106.097 64.6762 106.301 64.6762 106.515C64.6762 106.728 64.768 106.932 64.9313 107.083C65.0947 107.234 65.3162 107.319 65.5472 107.319H65.5124Z" fill="#093F68"/>
<path d="M129.378 103.941C129.609 103.941 129.831 103.856 129.994 103.705C130.157 103.555 130.249 103.35 130.249 103.137V77.6501C130.249 77.4368 130.157 77.2323 129.994 77.0816C129.831 76.9308 129.609 76.8461 129.378 76.8461C129.147 76.8461 128.926 76.9308 128.762 77.0816C128.599 77.2323 128.507 77.4368 128.507 77.6501V103.137C128.507 103.35 128.599 103.555 128.762 103.705C128.926 103.856 129.147 103.941 129.378 103.941Z" fill="#093F68"/>
<path d="M108.726 82.6751H118.142C118.373 82.6751 118.595 82.5904 118.758 82.4397C118.921 82.2889 119.013 82.0844 119.013 81.8711C119.013 81.6579 118.921 81.4534 118.758 81.3026C118.595 81.1518 118.373 81.0671 118.142 81.0671H108.726C108.495 81.0671 108.273 81.1518 108.11 81.3026C107.947 81.4534 107.855 81.6579 107.855 81.8711C107.855 82.0844 107.947 82.2889 108.11 82.4397C108.273 82.5904 108.495 82.6751 108.726 82.6751Z" fill="#093F68"/>
<path d="M140.616 82.6751H149.997C150.228 82.6751 150.45 82.5904 150.613 82.4397C150.776 82.2889 150.868 82.0844 150.868 81.8711C150.868 81.6579 150.776 81.4534 150.613 81.3026C150.45 81.1518 150.228 81.0671 149.997 81.0671H140.616C140.385 81.0671 140.163 81.1518 140 81.3026C139.836 81.4534 139.745 81.6579 139.745 81.8711C139.745 82.0844 139.836 82.2889 140 82.4397C140.163 82.5904 140.385 82.6751 140.616 82.6751Z" fill="#093F68"/>
<path d="M200.066 79.7568H205.101V93.2721H200.066V79.7568Z" fill="#FFBC0E"/>
<path d="M200.065 94.0607H205.1C205.331 94.0607 205.552 93.976 205.716 93.8252C205.879 93.6744 205.971 93.4699 205.971 93.2567V79.7575C205.971 79.5443 205.879 79.3398 205.716 79.189C205.552 79.0382 205.331 78.9535 205.1 78.9535H200.065C199.834 78.9535 199.612 79.0382 199.449 79.189C199.286 79.3398 199.194 79.5443 199.194 79.7575V93.2567C199.194 93.4699 199.286 93.6744 199.449 93.8252C199.612 93.976 199.834 94.0607 200.065 94.0607ZM204.229 92.4527H200.936V80.5615H204.229V92.4527Z" fill="#093F68"/>
<path d="M7.68215 91.8646H14.9991C15.9578 91.8646 16.8773 91.513 17.5552 90.8873C18.2332 90.2616 18.614 89.4129 18.614 88.528V83.0125C18.614 82.1276 18.2332 81.2789 17.5552 80.6532C16.8773 80.0274 15.9578 79.6759 14.9991 79.6759H9.64205C9.18583 80.5349 8.89127 81.4593 8.77099 82.4095L7.68215 91.8646Z" fill="#FFBC0E"/>
<path d="M7.6812 92.6692H14.9981C16.1872 92.6671 17.3269 92.2302 18.1677 91.4541C19.0085 90.6781 19.4818 89.6261 19.4841 88.5286V83.0132C19.4818 81.9157 19.0085 80.8637 18.1677 80.0877C17.3269 79.3116 16.1872 78.8747 14.9981 78.8726H9.6411C9.47692 78.873 9.3162 78.9162 9.1775 78.9973C9.03879 79.0784 8.92775 79.194 8.85715 79.3308C8.36578 80.271 8.05624 81.2832 7.94251 82.3217L6.81014 91.7848C6.79768 91.8963 6.81062 92.009 6.84813 92.1156C6.88563 92.2222 6.94686 92.3204 7.0279 92.4039C7.11033 92.4882 7.21117 92.5554 7.32377 92.6012C7.43638 92.6469 7.55819 92.6701 7.6812 92.6692ZM14.972 80.4806C15.6997 80.4806 16.3976 80.7474 16.9122 81.2223C17.4268 81.6973 17.7159 82.3415 17.7159 83.0132V88.5286C17.7159 89.2003 17.4268 89.8445 16.9122 90.3194C16.3976 90.7944 15.6997 91.0612 14.972 91.0612H8.64807L9.6411 82.4906C9.72649 81.8019 9.90801 81.1263 10.1812 80.4806H14.972Z" fill="#093F68"/>
<path d="M181.65 68.5087C181.786 68.5087 181.919 68.4796 182.04 68.4238C182.161 68.368 182.266 68.287 182.347 68.1871C182.486 68.0165 182.545 67.8021 182.513 67.591C182.48 67.3799 182.358 67.1894 182.173 67.0615L160.205 51.8578C160.113 51.7945 160.009 51.7484 159.898 51.7222C159.788 51.696 159.672 51.6902 159.559 51.7051C159.446 51.72 159.337 51.7554 159.238 51.8092C159.14 51.863 159.054 51.9342 158.985 52.0186C158.917 52.1031 158.867 52.1992 158.838 52.3015C158.81 52.4038 158.804 52.5102 158.82 52.6147C158.836 52.7192 158.874 52.8198 158.933 52.9107C158.991 53.0015 159.068 53.0809 159.159 53.1442L181.128 68.3318C181.276 68.442 181.46 68.5041 181.65 68.5087Z" fill="#DFEAEF"/>
<path d="M156.25 66.0483C156.431 66.049 156.608 65.9978 156.755 65.9018C156.903 65.8058 157.015 65.6698 157.075 65.5125C157.136 65.3553 157.141 65.1846 157.092 65.0242C157.043 64.8638 156.94 64.7215 156.799 64.6171L141.164 52.7903C141.075 52.723 140.973 52.6726 140.863 52.6418C140.754 52.6111 140.638 52.6007 140.524 52.6111C140.41 52.6216 140.299 52.6527 140.198 52.7028C140.097 52.7528 140.008 52.8208 139.935 52.9028C139.863 52.9846 139.808 53.0788 139.775 53.18C139.741 53.2813 139.73 53.3877 139.741 53.493C139.753 53.5983 139.786 53.7006 139.841 53.7938C139.895 53.8871 139.969 53.9695 140.057 54.0365L155.693 65.8633C155.85 65.9832 156.047 66.0486 156.25 66.0483Z" fill="#DFEAEF"/>
<path d="M113.455 68.509C113.576 68.5098 113.695 68.4873 113.806 68.443C113.917 68.3987 114.017 68.3336 114.099 68.2517C114.177 68.1733 114.237 68.0815 114.276 67.9815C114.315 67.8815 114.332 67.7753 114.327 67.6692C114.321 67.563 114.293 67.4589 114.243 67.3629C114.194 67.267 114.124 67.181 114.038 67.1101L93.9166 50.0732C93.7457 49.9293 93.5198 49.854 93.2886 49.8638C93.0575 49.8736 92.84 49.9677 92.6841 50.1255C92.5281 50.2833 92.4465 50.4918 92.4571 50.7052C92.4677 50.9185 92.5697 51.1192 92.7407 51.2632L112.862 68.3321C113.029 68.4564 113.24 68.5194 113.455 68.509Z" fill="#DFEAEF"/>
<path d="M86.6882 66.0485C86.918 66.0455 87.1371 65.9588 87.298 65.8073C87.4602 65.6566 87.5513 65.4529 87.5513 65.2405C87.5513 65.0281 87.4602 64.8243 87.298 64.6736L77.7162 55.8296C77.553 55.6799 77.3323 55.5958 77.1022 55.5958C76.872 55.5958 76.6513 55.6799 76.488 55.8296C76.3258 55.9803 76.2347 56.184 76.2347 56.3964C76.2347 56.6088 76.3258 56.8126 76.488 56.9633L86.0698 65.8073C86.1504 65.8833 86.2466 65.9437 86.3528 65.9851C86.459 66.0265 86.573 66.048 86.6882 66.0485Z" fill="#DFEAEF"/>
<path d="M93.325 38.5839H172.313C172.454 38.5904 172.595 38.5651 172.723 38.5102C172.851 38.4553 172.963 38.3724 173.049 38.2687C173.135 38.1651 173.192 38.0437 173.215 37.9151C173.239 37.7865 173.228 37.6546 173.184 37.5307L169.421 26.8776C169.362 26.7097 169.245 26.5644 169.087 26.4641C168.93 26.3639 168.741 26.3142 168.55 26.3229H97.1228C96.9391 26.323 96.7602 26.3767 96.6116 26.4763C96.463 26.576 96.3523 26.7164 96.2953 26.8776L92.5323 37.5307C92.4891 37.6516 92.4776 37.7802 92.4989 37.906C92.5201 38.0318 92.5733 38.1512 92.6543 38.2542C92.7318 38.3524 92.8325 38.433 92.9486 38.4901C93.0648 38.5472 93.1935 38.5793 93.325 38.5839ZM171.094 36.9759H94.5183L97.7152 27.9309H167.897L171.094 36.9759Z" fill="#093F68"/>
<path d="M112.27 0.859741H150.144V13.9167H112.27V0.859741Z" fill="#F56132"/>
<path d="M112.279 14.7215H150.145C150.376 14.7215 150.597 14.6368 150.76 14.486C150.924 14.3352 151.016 14.1307 151.016 13.9175V0.860521C151.016 0.647286 150.924 0.442784 150.76 0.292005C150.597 0.141225 150.376 0.0565186 150.145 0.0565186H112.279C112.048 0.0565186 111.827 0.141225 111.663 0.292005C111.5 0.442784 111.408 0.647286 111.408 0.860521V13.9175C111.408 14.1307 111.5 14.3352 111.663 14.486C111.827 14.6368 112.048 14.7215 112.279 14.7215ZM149.273 13.1135H113.15V1.66452H149.273V13.1135Z" fill="#093F68"/>
<path d="M148.924 38.5847C149.008 38.596 149.093 38.596 149.177 38.5847C149.397 38.5233 149.582 38.384 149.691 38.1972C149.801 38.0104 149.826 37.7913 149.761 37.5877L137.862 0.603595C137.795 0.400373 137.644 0.229677 137.442 0.128759C137.24 0.0278405 137.002 0.0048871 136.782 0.0649093C136.56 0.124615 136.373 0.263198 136.262 0.450164C136.151 0.637131 136.125 0.857171 136.189 1.06188L148.088 38.046C148.149 38.2055 148.262 38.3434 148.412 38.4401C148.562 38.5368 148.741 38.5874 148.924 38.5847Z" fill="#093F68"/>
<path d="M112.949 38.5841C113.144 38.5912 113.335 38.5381 113.493 38.4332C113.651 38.3283 113.766 38.1776 113.82 38.0052L125.423 1.02108C125.485 0.817469 125.458 0.599492 125.347 0.414382C125.236 0.229272 125.051 0.0919464 124.831 0.0321633C124.721 0.0026 124.606 -0.00671334 124.492 0.00476246C124.378 0.0162383 124.268 0.048275 124.168 0.0990428C124.068 0.149811 123.979 0.218314 123.908 0.300644C123.836 0.382975 123.783 0.477525 123.751 0.578885L112.148 37.563C112.083 37.7677 112.109 37.9877 112.22 38.1747C112.332 38.3617 112.519 38.5002 112.74 38.5599C112.808 38.577 112.879 38.5852 112.949 38.5841Z" fill="#093F68"/>
<path d="M152.662 17.9607H157.087C157.318 17.9607 157.54 17.876 157.703 17.7252C157.866 17.5744 157.958 17.3699 157.958 17.1567C157.958 16.9434 157.866 16.7389 157.703 16.5881C157.54 16.4374 157.318 16.3527 157.087 16.3527H152.662C152.431 16.3527 152.209 16.4374 152.046 16.5881C151.883 16.7389 151.791 16.9434 151.791 17.1567C151.791 17.3699 151.883 17.5744 152.046 17.7252C152.209 17.876 152.431 17.9607 152.662 17.9607Z" fill="#093F68"/>
<path d="M144.439 4.728H147.183C147.414 4.728 147.636 4.64329 147.799 4.49251C147.962 4.34173 148.054 4.13723 148.054 3.924C148.054 3.71076 147.962 3.50626 147.799 3.35548C147.636 3.2047 147.414 3.12 147.183 3.12H144.439C144.208 3.12 143.987 3.2047 143.823 3.35548C143.66 3.50626 143.568 3.71076 143.568 3.924C143.568 4.13723 143.66 4.34173 143.823 4.49251C143.987 4.64329 144.208 4.728 144.439 4.728Z" fill="#093F68"/>
</svg>
