<svg width="32" height="40" viewBox="0 0 32 40" fill="none" xmlns="http://www.w3.org/2000/svg">
<path d="M25.3333 13.6148C25.3333 10.5344 24.3501 7.58011 22.5996 5.40191C20.8493 3.2237 18.4754 2 16 2C13.5246 2 11.1507 3.2237 9.40034 5.40191C7.65 7.58011 6.66667 10.5344 6.66667 13.6148C6.66667 27.1655 2 31.0371 2 31.0371H30C30 31.0371 25.3333 27.1655 25.3333 13.6148Z" stroke="#676E8A" stroke-width="3" stroke-linecap="round" stroke-linejoin="round"/>
<path d="M18.6908 36.4814C18.4173 37.0315 18.0249 37.4881 17.5525 37.8054C17.0802 38.1228 16.5448 38.2899 15.9997 38.2899C15.4546 38.2899 14.9192 38.1228 14.4469 37.8054C13.9747 37.4881 13.5821 37.0315 13.3086 36.4814" stroke="#676E8A" stroke-width="3" stroke-linecap="round" stroke-linejoin="round"/>
</svg>
