<svg
  width="23"
  height="29"
  viewBox="0 0 23 29"
  fill="none"
  xmlns="http://www.w3.org/2000/svg"
  >
  <path
  d="M11.5 0C8.45001 0 5.52494 1.22214 3.36827 3.39755C1.2116 5.57297 0 8.52346 0 11.6C0 19.4299 10.1344 28.2749 10.5656 28.6519C10.826 28.8766 11.1574 29 11.5 29C11.8426 29 12.174 28.8766 12.4344 28.6519C12.9375 28.2749 23 19.4299 23 11.6C23 8.52346 21.7884 5.57297 19.6317 3.39755C17.4751 1.22214 14.55 0 11.5 0ZM11.5 25.5924C8.43812 22.6924 2.875 16.4429 2.875 11.6C2.875 9.29259 3.7837 7.07971 5.4012 5.44815C7.01871 3.81659 9.21251 2.89999 11.5 2.89999C13.7875 2.89999 15.9813 3.81659 17.5988 5.44815C19.2163 7.07971 20.125 9.29259 20.125 11.6C20.125 16.4429 14.5619 22.7069 11.5 25.5924ZM11.5 5.79998C10.3628 5.79998 9.25105 6.14014 8.30547 6.77745C7.35989 7.41476 6.6229 8.3206 6.18769 9.38041C5.75249 10.4402 5.63862 11.6064 5.86048 12.7315C6.08235 13.8566 6.62998 14.89 7.43414 15.7012C8.23829 16.5123 9.26284 17.0647 10.3782 17.2885C11.4936 17.5123 12.6498 17.3974 13.7004 16.9584C14.7511 16.5195 15.6491 15.7761 16.281 14.8223C16.9128 13.8685 17.25 12.7471 17.25 11.6C17.25 10.0617 16.6442 8.58646 15.5659 7.49876C14.4875 6.41105 13.025 5.79998 11.5 5.79998ZM11.5 14.5C10.9314 14.5 10.3755 14.3299 9.90274 14.0112C9.42994 13.6926 9.06145 13.2396 8.84385 12.7097C8.62624 12.1798 8.56931 11.5967 8.68024 11.0342C8.79117 10.4717 9.06499 9.95493 9.46707 9.54936C9.86914 9.14379 10.3814 8.86759 10.9391 8.75569C11.4968 8.6438 12.0749 8.70123 12.6002 8.92072C13.1256 9.14021 13.5746 9.51191 13.8905 9.98881C14.2064 10.4657 14.375 11.0264 14.375 11.6C14.375 12.3691 14.0721 13.1067 13.5329 13.6506C12.9938 14.1944 12.2625 14.5 11.5 14.5Z"
  fill="#676E8A"
  />
</svg>