<svg width="35" height="34" viewBox="0 0 35 34" fill="none" xmlns="http://www.w3.org/2000/svg">
<path d="M10.5345 15.2993C10.1888 15.2993 9.85098 15.399 9.5636 15.5858C9.27622 15.7726 9.05223 16.0381 8.91997 16.3487C8.7877 16.6593 8.75309 17.0011 8.82052 17.3309C8.88795 17.6606 9.05439 17.9635 9.29878 18.2013C9.54318 18.439 9.85456 18.6009 10.1936 18.6665C10.5325 18.7321 10.8839 18.6984 11.2032 18.5698C11.5226 18.4411 11.7955 18.2232 11.9875 17.9437C12.1795 17.6641 12.282 17.3355 12.282 16.9992C12.282 16.5484 12.0979 16.116 11.7702 15.7972C11.4424 15.4784 10.998 15.2993 10.5345 15.2993ZM17.5246 15.2993C17.179 15.2993 16.8411 15.399 16.5537 15.5858C16.2664 15.7726 16.0424 16.0381 15.9101 16.3487C15.7778 16.6593 15.7432 17.0011 15.8107 17.3309C15.8781 17.6606 16.0445 17.9635 16.2889 18.2013C16.5333 18.439 16.8447 18.6009 17.1837 18.6665C17.5227 18.7321 17.8741 18.6984 18.1934 18.5698C18.5127 18.4411 18.7856 18.2232 18.9777 17.9437C19.1697 17.6641 19.2722 17.3355 19.2722 16.9992C19.2722 16.5484 19.0881 16.116 18.7603 15.7972C18.4326 15.4784 17.9881 15.2993 17.5246 15.2993ZM24.5148 15.2993C24.1691 15.2993 23.8313 15.399 23.5439 15.5858C23.2565 15.7726 23.0325 16.0381 22.9003 16.3487C22.768 16.6593 22.7334 17.0011 22.8008 17.3309C22.8682 17.6606 23.0347 17.9635 23.2791 18.2013C23.5235 18.439 23.8349 18.6009 24.1738 18.6665C24.5128 18.7321 24.8642 18.6984 25.1835 18.5698C25.5028 18.4411 25.7758 18.2232 25.9678 17.9437C26.1598 17.6641 26.2623 17.3355 26.2623 16.9992C26.2623 16.5484 26.0782 16.116 25.7505 15.7972C25.4227 15.4784 24.9783 15.2993 24.5148 15.2993ZM17.5246 0C15.2297 0 12.9573 0.439699 10.8371 1.29399C8.71688 2.14828 6.79041 3.40044 5.16767 4.97896C1.89041 8.16694 0.0492567 12.4908 0.0492567 16.9992C0.0339795 20.9246 1.4312 24.7314 3.99869 27.7598L0.503616 31.1596C0.261132 31.3987 0.0968703 31.7022 0.0315576 32.032C-0.033755 32.3618 0.00280811 32.703 0.136634 33.0125C0.28178 33.3184 0.51708 33.5754 0.812663 33.751C1.10825 33.9265 1.45078 34.0127 1.79679 33.9985H17.5246C22.1594 33.9985 26.6043 32.2075 29.8816 29.0195C33.1589 25.8316 35 21.5077 35 16.9992C35 12.4908 33.1589 8.16694 29.8816 4.97896C26.6043 1.79099 22.1594 0 17.5246 0ZM17.5246 30.5986H6.00836L7.63357 29.0177C7.79869 28.8603 7.93005 28.6725 8.02004 28.4654C8.11004 28.2582 8.15687 28.0357 8.15783 27.8108C8.15126 27.3624 7.96283 26.9347 7.63357 26.6208C5.34532 24.3974 3.92036 21.471 3.60146 18.3401C3.28256 15.2093 4.08946 12.0678 5.88468 9.45077C7.6799 6.83376 10.3524 4.90319 13.4468 3.98798C16.5412 3.07276 19.8661 3.22953 22.855 4.43156C25.8439 5.63359 28.3119 7.80652 29.8385 10.5801C31.3652 13.3538 31.856 16.5565 31.2273 19.6426C30.5986 22.7288 28.8894 25.5075 26.3908 27.5052C23.8923 29.5029 20.7589 30.5962 17.5246 30.5986Z" fill="#676E8A"/>
</svg>
