<svg width="15" height="19" viewBox="0 0 15 19" fill="none" xmlns="http://www.w3.org/2000/svg">
<path fill-rule="evenodd" clip-rule="evenodd" d="M6.76316 1.20967C5.23467 1.20967 3.76879 1.94416 2.68799 3.25157C1.60719 4.55898 1 6.33221 1 8.18117C1 10.0301 1.60719 11.8034 2.68799 13.1108C3.76879 14.4182 5.23467 15.1527 6.76316 15.1527C8.28628 15.1527 9.74724 14.4233 10.8269 13.1245C10.8316 13.1184 10.8364 13.1124 10.8413 13.1065C10.8458 13.101 10.8504 13.0957 10.855 13.0905C11.9254 11.785 12.5263 10.0206 12.5263 8.18117C12.5263 6.33221 11.9191 4.55898 10.8383 3.25157C9.75752 1.94416 8.29164 1.20967 6.76316 1.20967ZM11.8884 13.5192C12.9415 12.0397 13.5263 10.1469 13.5263 8.18117C13.5263 6.01139 12.8138 3.93047 11.5454 2.39621C10.2771 0.861942 8.55686 0 6.76316 0C4.96946 0 3.24922 0.861942 1.98088 2.39621C0.712545 3.93047 0 6.01139 0 8.18117C0 10.3509 0.712545 12.4319 1.98088 13.9661C3.24922 15.5004 4.96946 16.3623 6.76316 16.3623C8.39071 16.3623 9.95777 15.6527 11.1816 14.375L14.1461 17.9675C14.3412 18.2039 14.6578 18.2042 14.8532 17.9682C15.0487 17.7322 15.049 17.3493 14.8539 17.1129L11.8884 13.5192Z" fill="#676E8A"/>
</svg>
