<svg width="18" height="22" viewBox="0 0 18 22" fill="none" xmlns="http://www.w3.org/2000/svg">
<path d="M8.75 0C6.6853 0 5.00002 2.19557 5 4.88519C5.00002 7.57498 6.6853 9.77038 8.75 9.77038C10.8147 9.77038 12.5 7.57498 12.5 4.88519C12.5 2.19557 10.8147 0 8.75 0ZM8.75 1.39622C10.2357 1.39622 11.4282 2.94984 11.4282 4.88519C11.4282 6.8207 10.2357 8.37734 8.75 8.37734C7.26433 8.37734 6.07179 6.8207 6.07178 4.88519C6.07179 2.94984 7.26433 1.39606 8.75 1.39622ZM8.75 11.3988C3.96491 11.3988 0 15.6911 0 21.1692H1.25C1.25 16.724 4.53259 13.0272 8.75 13.0272C12.9674 13.0272 16.25 16.724 16.25 21.1692H17.5C17.5 15.6911 13.5351 11.3988 8.75 11.3988Z" fill="white"/>
</svg>
